<svg width="18" height="14" viewBox="0 0 18 14" fill="none" xmlns="http://www.w3.org/2000/svg">
<path id="Vector" d="M15.6667 3.66668L9.00008 7.83334L2.33341 3.66668V2.00001L9.00008 6.16668L15.6667 2.00001V3.66668ZM15.6667 0.333344H2.33341C1.40841 0.333344 0.666748 1.07501 0.666748 2.00001V12C0.666748 12.442 0.842343 12.866 1.1549 13.1785C1.46746 13.4911 1.89139 13.6667 2.33341 13.6667H15.6667C16.1088 13.6667 16.5327 13.4911 16.8453 13.1785C17.1578 12.866 17.3334 12.442 17.3334 12V2.00001C17.3334 1.55798 17.1578 1.13406 16.8453 0.821499C16.5327 0.508938 16.1088 0.333344 15.6667 0.333344V0.333344Z" fill="#AAAAAA"/>
</svg>
