<svg width="24" height="24" viewBox="0 0 24 24" fill="none" xmlns="http://www.w3.org/2000/svg">
<path d="M4 4.50004C4 3.83699 4.28974 3.20109 4.80547 2.73224C5.3212 2.2634 6.02069 2 6.75004 2H17.7502C18.4796 2 19.1791 2.2634 19.6948 2.73224C20.2105 3.20109 20.5003 3.83699 20.5003 4.50004V21.3753C20.5002 21.4884 20.4664 21.5993 20.4025 21.6963C20.3386 21.7932 20.2469 21.8726 20.1373 21.926C20.0276 21.9794 19.9041 22.0047 19.7799 21.9993C19.6557 21.9939 19.5354 21.958 19.4319 21.8953L12.2501 18.3765L5.06839 21.8953C4.96486 21.958 4.84458 21.9939 4.72036 21.9993C4.59614 22.0047 4.47264 21.9794 4.36301 21.926C4.25337 21.8726 4.16171 21.7932 4.09778 21.6963C4.03386 21.5993 4.00006 21.4884 4 21.3753V4.50004ZM6.75004 3.25002C6.38537 3.25002 6.03562 3.38172 5.77776 3.61614C5.51989 3.85057 5.37502 4.16851 5.37502 4.50004V20.2078L11.8693 17.1052C11.9821 17.037 12.1146 17.0006 12.2501 17.0006C12.3857 17.0006 12.5182 17.037 12.631 17.1052L19.1252 20.2078V4.50004C19.1252 4.16851 18.9804 3.85057 18.7225 3.61614C18.4646 3.38172 18.1149 3.25002 17.7502 3.25002H6.75004Z" fill="#929292"/>
</svg>
