<svg width="24" height="24" viewBox="0 0 24 24" fill="none" xmlns="http://www.w3.org/2000/svg">
<path d="M16.6667 8V6.03334C16.6667 5.4205 16.546 4.81367 16.3114 4.24748C16.0769 3.68129 15.7332 3.16684 15.2998 2.7335C14.8665 2.30016 14.352 1.95642 13.7859 1.7219C13.2197 1.48738 12.6128 1.36667 12 1.36667C11.3872 1.36667 10.7803 1.48738 10.2141 1.7219C9.64796 1.95642 9.13351 2.30016 8.70017 2.7335C8.26683 3.16684 7.92308 3.68129 7.68856 4.24748C7.45404 4.81367 7.33333 5.4205 7.33333 6.03334V10.7C7.33333 10.8768 7.40357 11.0464 7.52859 11.1714C7.65362 11.2964 7.82319 11.3667 8 11.3667C8.17681 11.3667 8.34638 11.2964 8.4714 11.1714C8.59643 11.0464 8.66666 10.8768 8.66666 10.7V9.33334H14V8H8.66666V6.03334C8.66666 5.14928 9.01785 4.30143 9.64297 3.67631C10.2681 3.05119 11.1159 2.7 12 2.7C12.8841 2.7 13.7319 3.05119 14.357 3.67631C14.9821 4.30143 15.3333 5.14928 15.3333 6.03334V10.6667C15.3333 10.8435 15.4036 11.0131 15.5286 11.1381C15.6536 11.2631 15.8232 11.3333 16 11.3333C16.1768 11.3333 16.3464 11.2631 16.4714 11.1381C16.5964 11.0131 16.6667 10.8435 16.6667 10.6667V9.33334H20V21.3333H4V9.33334H6V8H2.66666V21.3933C2.66666 21.731 2.80082 22.0549 3.03961 22.2937C3.27841 22.5325 3.60229 22.6667 3.94 22.6667H20.06C20.3977 22.6667 20.7216 22.5325 20.9604 22.2937C21.1992 22.0549 21.3333 21.731 21.3333 21.3933V8H16.6667Z" fill="#FF8F2B"/>
</svg>
