<svg width="20" height="20" viewBox="0 0 20 20" fill="none" xmlns="http://www.w3.org/2000/svg">
<path d="M13.3333 2.66665V1.99998C13.3333 1.82317 13.263 1.6536 13.138 1.52858C13.013 1.40355 12.8434 1.33331 12.6666 1.33331C12.4898 1.33331 12.3202 1.40355 12.1952 1.52858C12.0702 1.6536 11.9999 1.82317 11.9999 1.99998V2.66665H6.66659C6.31296 2.66665 5.97382 2.80712 5.72378 3.05717C5.47373 3.30722 5.33325 3.64636 5.33325 3.99998V17.3333C5.33325 17.6869 5.47373 18.0261 5.72378 18.2761C5.97382 18.5262 6.31296 18.6666 6.66659 18.6666H13.3333C13.6869 18.6666 14.026 18.5262 14.2761 18.2761C14.5261 18.0261 14.6666 17.6869 14.6666 17.3333V3.99998C14.6666 3.64636 14.5261 3.30722 14.2761 3.05717C14.026 2.80712 13.6869 2.66665 13.3333 2.66665ZM7.99992 17.3333H6.66659V16H7.99992V17.3333ZM7.99992 14.6666H6.66659V13.3333H7.99992V14.6666ZM7.99992 12H6.66659V10.6666H7.99992V12ZM10.6666 17.3333H9.33325V16H10.6666V17.3333ZM10.6666 14.6666H9.33325V13.3333H10.6666V14.6666ZM10.6666 12H9.33325V10.6666H10.6666V12ZM13.3333 17.3333H11.9999V16H13.3333V17.3333ZM13.3333 14.6666H11.9999V13.3333H13.3333V14.6666ZM13.3333 12H11.9999V10.6666H13.3333V12ZM13.3333 8.66665C13.3333 8.84346 13.263 9.01303 13.138 9.13805C13.013 9.26307 12.8434 9.33331 12.6666 9.33331H7.33325C7.15644 9.33331 6.98687 9.26307 6.86185 9.13805C6.73682 9.01303 6.66659 8.84346 6.66659 8.66665V4.66665C6.66659 4.48984 6.73682 4.32027 6.86185 4.19524C6.98687 4.07022 7.15644 3.99998 7.33325 3.99998H12.6666C12.8434 3.99998 13.013 4.07022 13.138 4.19524C13.263 4.32027 13.3333 4.48984 13.3333 4.66665V8.66665Z" fill="#AAAAAA"/>
</svg>
