<svg width="22" height="22" viewBox="0 0 22 22" fill="none" xmlns="http://www.w3.org/2000/svg">
<path d="M11.75 7.25C11.75 7.05109 11.671 6.86032 11.5303 6.71967C11.3897 6.57902 11.1989 6.5 11 6.5C10.8011 6.5 10.6103 6.57902 10.4697 6.71967C10.329 6.86032 10.25 7.05109 10.25 7.25V10.25H7.25C7.05109 10.25 6.86032 10.329 6.71967 10.4697C6.57902 10.6103 6.5 10.8011 6.5 11C6.5 11.1989 6.57902 11.3897 6.71967 11.5303C6.86032 11.671 7.05109 11.75 7.25 11.75H10.25V14.75C10.25 14.9489 10.329 15.1397 10.4697 15.2803C10.6103 15.421 10.8011 15.5 11 15.5C11.1989 15.5 11.3897 15.421 11.5303 15.2803C11.671 15.1397 11.75 14.9489 11.75 14.75V11.75H14.75C14.9489 11.75 15.1397 11.671 15.2803 11.5303C15.421 11.3897 15.5 11.1989 15.5 11C15.5 10.8011 15.421 10.6103 15.2803 10.4697C15.1397 10.329 14.9489 10.25 14.75 10.25H11.75V7.25ZM0.5 11C0.5 16.799 5.201 21.5 11 21.5C16.799 21.5 21.5 16.799 21.5 11C21.5 5.201 16.799 0.5 11 0.5C5.201 0.5 0.5 5.201 0.5 11ZM2 11C2 6.02975 6.02975 2 11 2C15.9703 2 20 6.02975 20 11C20 15.9703 15.9703 20 11 20C6.02975 20 2 15.9703 2 11Z" fill="#929292"/>
</svg>
