<svg width="20" height="20" viewBox="0 0 20 20" fill="none" xmlns="http://www.w3.org/2000/svg">
<path d="M10.0001 9.16667C10.6594 9.16667 11.3038 8.97117 11.852 8.6049C12.4001 8.23863 12.8274 7.71803 13.0797 7.10895C13.332 6.49986 13.398 5.82964 13.2694 5.18303C13.1407 4.53643 12.8233 3.94249 12.3571 3.47631C11.8909 3.01014 11.297 2.69267 10.6504 2.56405C10.0038 2.43543 9.33356 2.50144 8.72447 2.75374C8.11538 3.00603 7.59479 3.43327 7.22852 3.98143C6.86224 4.5296 6.66675 5.17406 6.66675 5.83334C6.66675 6.71739 7.01794 7.56524 7.64306 8.19036C8.26818 8.81548 9.11603 9.16667 10.0001 9.16667ZM15.0001 17.5C15.2211 17.5 15.4331 17.4122 15.5893 17.2559C15.7456 17.0996 15.8334 16.8877 15.8334 16.6667C15.8334 15.1196 15.2188 13.6358 14.1249 12.5419C13.0309 11.4479 11.5472 10.8333 10.0001 10.8333C8.45299 10.8333 6.96925 11.4479 5.87529 12.5419C4.78133 13.6358 4.16675 15.1196 4.16675 16.6667C4.16675 16.8877 4.25455 17.0996 4.41083 17.2559C4.56711 17.4122 4.77907 17.5 5.00008 17.5H15.0001Z" fill="#AAAAAA"/>
</svg>
