<svg width="24" height="24" viewBox="0 0 24 24" fill="none" xmlns="http://www.w3.org/2000/svg">
<path d="M16.6665 8V6.03334C16.6665 5.4205 16.5458 4.81367 16.3113 4.24748C16.0768 3.68129 15.733 3.16684 15.2997 2.7335C14.8663 2.30016 14.3519 1.95642 13.7857 1.7219C13.2195 1.48738 12.6127 1.36667 11.9998 1.36667C11.387 1.36667 10.7802 1.48738 10.214 1.7219C9.6478 1.95642 9.13335 2.30016 8.70001 2.7335C8.26667 3.16684 7.92292 3.68129 7.6884 4.24748C7.45388 4.81367 7.33317 5.4205 7.33317 6.03334V10.7C7.33317 10.8768 7.40341 11.0464 7.52843 11.1714C7.65346 11.2964 7.82303 11.3667 7.99984 11.3667C8.17665 11.3667 8.34622 11.2964 8.47124 11.1714C8.59627 11.0464 8.6665 10.8768 8.6665 10.7V9.33334H13.9998V8H8.6665V6.03334C8.6665 5.14928 9.01769 4.30143 9.64281 3.67631C10.2679 3.05119 11.1158 2.7 11.9998 2.7C12.8839 2.7 13.7317 3.05119 14.3569 3.67631C14.982 4.30143 15.3332 5.14928 15.3332 6.03334V10.6667C15.3332 10.8435 15.4034 11.013 15.5284 11.1381C15.6535 11.2631 15.823 11.3333 15.9998 11.3333C16.1766 11.3333 16.3462 11.2631 16.4712 11.1381C16.5963 11.013 16.6665 10.8435 16.6665 10.6667V9.33334H19.9998V21.3333H3.99984V9.33334H5.99984V8H2.6665V21.3933C2.6665 21.731 2.80066 22.0549 3.03945 22.2937C3.27825 22.5325 3.60213 22.6667 3.93984 22.6667H20.0598C20.3975 22.6667 20.7214 22.5325 20.9602 22.2937C21.199 22.0549 21.3332 21.731 21.3332 21.3933V8H16.6665Z" fill="#929292"/>
</svg>
