<svg width="24" height="24" viewBox="0 0 24 24" fill="none" xmlns="http://www.w3.org/2000/svg">
<path d="M3.75 12L3.015 11.853C3.00517 11.9014 3.00015 11.9506 3 12H3.75ZM20.25 12H21C20.9999 11.9506 20.9948 11.9014 20.985 11.853L20.25 12ZM16.125 12V11.25C15.962 11.2499 15.8034 11.3029 15.6732 11.401C15.543 11.4992 15.4483 11.637 15.4035 11.7938L16.125 12ZM7.875 12L8.59575 11.7938C8.55096 11.6371 8.45639 11.4994 8.32636 11.4013C8.19633 11.3032 8.03789 11.2501 7.875 11.25V12ZM20.235 8.103C20.1903 7.91376 20.0739 7.74926 19.9103 7.6442C19.7467 7.53914 19.5486 7.50174 19.358 7.53987C19.1673 7.578 18.9989 7.6887 18.8883 7.8486C18.7776 8.00851 18.7334 8.20513 18.765 8.397L20.235 8.103ZM3 14.625C3 14.8239 3.07902 15.0147 3.21967 15.1553C3.36032 15.296 3.55109 15.375 3.75 15.375C3.94891 15.375 4.13968 15.296 4.28033 15.1553C4.42098 15.0147 4.5 14.8239 4.5 14.625H3ZM5.235 8.397C5.26655 8.20513 5.22235 8.00851 5.11173 7.8486C5.0011 7.6887 4.83269 7.578 4.64203 7.53987C4.45136 7.50174 4.25333 7.53914 4.08971 7.6442C3.92609 7.74926 3.80967 7.91376 3.765 8.103L5.235 8.397ZM10.125 6C9.92609 6 9.73532 6.07902 9.59467 6.21967C9.45402 6.36032 9.375 6.55109 9.375 6.75C9.375 6.94891 9.45402 7.13968 9.59467 7.28033C9.73532 7.42098 9.92609 7.5 10.125 7.5V6ZM13.875 7.5C14.0739 7.5 14.2647 7.42098 14.4053 7.28033C14.546 7.13968 14.625 6.94891 14.625 6.75C14.625 6.55109 14.546 6.36032 14.4053 6.21967C14.2647 6.07902 14.0739 6 13.875 6V7.5ZM10.125 9C9.92609 9 9.73532 9.07902 9.59467 9.21967C9.45402 9.36032 9.375 9.55109 9.375 9.75C9.375 9.94891 9.45402 10.1397 9.59467 10.2803C9.73532 10.421 9.92609 10.5 10.125 10.5V9ZM13.875 10.5C14.0739 10.5 14.2647 10.421 14.4053 10.2803C14.546 10.1397 14.625 9.94891 14.625 9.75C14.625 9.55109 14.546 9.36032 14.4053 9.21967C14.2647 9.07902 14.0739 9 13.875 9V10.5ZM6.375 9.75C6.375 9.94891 6.45402 10.1397 6.59467 10.2803C6.73532 10.421 6.92609 10.5 7.125 10.5C7.32391 10.5 7.51468 10.421 7.65533 10.2803C7.79598 10.1397 7.875 9.94891 7.875 9.75H6.375ZM7.125 3.75V3C6.92609 3 6.73532 3.07902 6.59467 3.21967C6.45402 3.36032 6.375 3.55109 6.375 3.75H7.125ZM16.875 3.75H17.625C17.625 3.55109 17.546 3.36032 17.4053 3.21967C17.2647 3.07902 17.0739 3 16.875 3V3.75ZM16.125 9.75C16.125 9.94891 16.204 10.1397 16.3447 10.2803C16.4853 10.421 16.6761 10.5 16.875 10.5C17.0739 10.5 17.2647 10.421 17.4053 10.2803C17.546 10.1397 17.625 9.94891 17.625 9.75H16.125ZM20.25 12H19.5V18H21V12.0007L20.25 12ZM19.5 18C19.5 18.3188 19.3328 18.6997 19.0163 19.0163C18.6997 19.3328 18.3188 19.5 18 19.5V21C18.8062 21 19.5503 20.6047 20.0775 20.0775C20.6047 19.5503 21 18.8062 21 18H19.5ZM6 19.5C5.68125 19.5 5.30025 19.3328 4.98375 19.0163C4.6665 18.6997 4.5 18.3188 4.5 18H3C3 18.8062 3.396 19.5503 3.9225 20.0775C4.44975 20.6047 5.19375 21 6 21V19.5ZM4.5 18V12H3V18H4.5ZM12 15.375C13.9102 15.375 15.1365 14.6213 15.8775 13.8225C16.2405 13.4325 16.4775 13.0417 16.626 12.7455C16.7094 12.578 16.7808 12.4048 16.8397 12.2272C16.8416 12.2215 16.8433 12.2158 16.845 12.21V12.2078L16.8458 12.207L16.125 12C15.8844 11.9324 15.6441 11.8634 15.4042 11.793V11.7907L15.405 11.7892V11.7878L15.4035 11.7952C15.3696 11.8906 15.3297 11.9838 15.2843 12.0743C15.1867 12.2708 15.0247 12.5363 14.7787 12.8018C14.301 13.3162 13.4648 13.875 12 13.875V15.375ZM16.125 12.75H20.25V11.25H16.125V12.75ZM3.75 12.75H7.875V11.25H3.75V12.75ZM7.875 12C7.63431 12.0675 7.39406 12.1365 7.15425 12.207V12.21L7.1565 12.2145C7.16114 12.2311 7.16614 12.2476 7.1715 12.264C7.18125 12.2925 7.194 12.3315 7.212 12.378C7.24725 12.471 7.29975 12.597 7.374 12.7455C7.57136 13.1381 7.82337 13.5007 8.1225 13.8225C8.8635 14.6213 10.0898 15.375 12 15.375V13.875C10.5353 13.875 9.699 13.3162 9.22125 12.8025C9.01929 12.585 8.8491 12.3401 8.71575 12.075C8.66918 11.9819 8.62859 11.886 8.59425 11.7878V11.7892L8.595 11.7907V11.7922L8.59575 11.793L7.875 12ZM18 19.5H6V21H18V19.5ZM18.765 8.397L19.515 12.147L20.985 11.853L20.235 8.103L18.765 8.397ZM3 12V14.625H4.5V12H3ZM3.765 8.103L3.015 11.853L4.485 12.147L5.235 8.397L3.765 8.103ZM10.125 7.5H13.875V6H10.125V7.5ZM10.125 10.5H13.875V9H10.125V10.5ZM7.875 9.75V3.75H6.375V9.75H7.875ZM7.125 4.5H16.875V3H7.125V4.5ZM16.125 3.75V9.75H17.625V3.75H16.125Z" fill="#242424"/>
</svg>
