<svg width="20" height="20" viewBox="0 0 20 20" fill="none" xmlns="http://www.w3.org/2000/svg">
<path d="M18.1713 8.36791H17.5001V8.33332H10.0001V11.6667H14.7097C14.0226 13.6071 12.1763 15 10.0001 15C7.23883 15 5.00008 12.7612 5.00008 9.99999C5.00008 7.23874 7.23883 4.99999 10.0001 4.99999C11.2747 4.99999 12.4342 5.48082 13.3172 6.26624L15.6742 3.90916C14.1859 2.52207 12.1951 1.66666 10.0001 1.66666C5.398 1.66666 1.66675 5.39791 1.66675 9.99999C1.66675 14.6021 5.398 18.3333 10.0001 18.3333C14.6022 18.3333 18.3334 14.6021 18.3334 9.99999C18.3334 9.44124 18.2759 8.89582 18.1713 8.36791Z" fill="#FFC107"/>
<path d="M2.62744 6.12124L5.36536 8.12916C6.10619 6.29499 7.90036 4.99999 9.99994 4.99999C11.2745 4.99999 12.4341 5.48082 13.317 6.26624L15.6741 3.90916C14.1858 2.52207 12.1949 1.66666 9.99994 1.66666C6.79911 1.66666 4.02327 3.47374 2.62744 6.12124Z" fill="#FF3D00"/>
<path d="M10 18.3333C12.1525 18.3333 14.1084 17.5096 15.5871 16.17L13.008 13.9875C12.1432 14.6452 11.0865 15.0009 10 15C7.83255 15 5.99213 13.6179 5.2988 11.6892L2.5813 13.7829C3.96047 16.4817 6.7613 18.3333 10 18.3333Z" fill="#4CAF50"/>
<path d="M18.1712 8.36793H17.5V8.33334H10V11.6667H14.7096C14.3809 12.5902 13.7889 13.3972 13.0067 13.9879L13.0079 13.9871L15.5871 16.1696C15.4046 16.3354 18.3333 14.1667 18.3333 10C18.3333 9.44126 18.2758 8.89584 18.1712 8.36793Z" fill="#1976D2"/>
</svg>
