<svg width="20" height="20" viewBox="0 0 20 20" fill="none" xmlns="http://www.w3.org/2000/svg">
<path d="M7 0C6.46957 0 5.96086 0.210714 5.58579 0.585786C5.21071 0.960859 5 1.46957 5 2H14C14.5304 2 15.0391 2.21071 15.4142 2.58579C15.7893 2.96086 16 3.46957 16 4V16C16.5304 16 17.0391 15.7893 17.4142 15.4142C17.7893 15.0391 18 14.5304 18 14V2C18 1.46957 17.7893 0.960859 17.4142 0.585786C17.0391 0.210714 16.5304 0 16 0L7 0Z" fill="#121212"/>
<path d="M2 5C2 4.46957 2.21071 3.96086 2.58579 3.58579C2.96086 3.21071 3.46957 3 4 3H13C13.5304 3 14.0391 3.21071 14.4142 3.58579C14.7893 3.96086 15 4.46957 15 5V18C15 18.5304 14.7893 19.0391 14.4142 19.4142C14.0391 19.7893 13.5304 20 13 20H4C3.46957 20 2.96086 19.7893 2.58579 19.4142C2.21071 19.0391 2 18.5304 2 18V5ZM9 10H13V5H9V10ZM4 6H8V5H4V6ZM4 8H8V7H4V8ZM4 10H8V9H4V10ZM4 12H13V11H4V12ZM4 14H13V13H4V14ZM4 16H13V15H4V16Z" fill="#121212"/>
</svg>
