<svg width="20" height="14" viewBox="0 0 20 14" fill="none" xmlns="http://www.w3.org/2000/svg">
<path d="M20 0.995C20 0.445 19.554 0 19.005 0H10.995C10.7311 7.86455e-09 10.478 0.10483 10.2914 0.291429C10.1048 0.478027 10 0.731109 10 0.995C10 1.25889 10.1048 1.51197 10.2914 1.69857C10.478 1.88517 10.7311 1.99 10.995 1.99H19.005C19.2689 1.99 19.522 1.88517 19.7086 1.69857C19.8952 1.51197 20 1.25889 20 0.995V0.995ZM20 7C20 6.45 19.554 6.005 19.005 6.005H0.995001C0.73111 6.005 0.478028 6.10983 0.29143 6.29643C0.104831 6.48303 0 6.73611 0 7C0 7.26389 0.104831 7.51697 0.29143 7.70357C0.478028 7.89017 0.73111 7.995 0.995001 7.995H19.005C19.2689 7.995 19.522 7.89017 19.7086 7.70357C19.8952 7.51697 20 7.26389 20 7V7ZM19.005 12.01C19.2689 12.01 19.522 12.1148 19.7086 12.3014C19.8952 12.488 20 12.7411 20 13.005C20 13.2689 19.8952 13.522 19.7086 13.7086C19.522 13.8952 19.2689 14 19.005 14H6.995C6.73111 14 6.47803 13.8952 6.29143 13.7086C6.10483 13.522 6 13.2689 6 13.005C6 12.7411 6.10483 12.488 6.29143 12.3014C6.47803 12.1148 6.73111 12.01 6.995 12.01H19.005Z" fill="#121212"/>
</svg>
