<svg width="24" height="24" viewBox="0 0 24 24" fill="none" xmlns="http://www.w3.org/2000/svg">
<path d="M11.541 1.6605C11.6741 1.55674 11.838 1.5004 12.0067 1.5004C12.1755 1.5004 12.3394 1.55674 12.4725 1.6605L23.25 10.0643L22.3177 11.2433L21 10.2158V19.5C20.9992 19.8976 20.8409 20.2787 20.5598 20.5598C20.2787 20.8409 19.8976 20.9992 19.5 21H4.5C4.10242 20.9992 3.72135 20.8409 3.44022 20.5598C3.15908 20.2787 3.00079 19.8976 3 19.5V10.2225L1.68225 11.25L0.75 10.071L11.541 1.6605ZM10.5 19.5H13.5V13.5H10.5V19.5ZM9 19.5V13.5C9.0004 13.1023 9.15856 12.721 9.43978 12.4398C9.721 12.1586 10.1023 12.0004 10.5 12H13.5C13.8977 12.0004 14.279 12.1586 14.5602 12.4398C14.8414 12.721 14.9996 13.1023 15 13.5V19.5H19.5V9.0465L12 3.204L4.5 9.054V19.5H9Z" fill="#FF8F2B"/>
</svg>
