<svg width="24" height="20" viewBox="0 0 24 20" fill="none" xmlns="http://www.w3.org/2000/svg">
<path d="M11.541 0.6605C11.6741 0.556744 11.838 0.500397 12.0068 0.500397C12.1755 0.500397 12.3394 0.556744 12.4725 0.6605L23.25 9.06425L22.3177 10.2433L21 9.21575V18.5C20.9992 18.8976 20.8409 19.2787 20.5598 19.5598C20.2787 19.8409 19.8976 19.9992 19.5 20H4.5C4.10242 19.9992 3.72135 19.8409 3.44022 19.5598C3.15908 19.2787 3.00079 18.8976 3 18.5V9.2225L1.68225 10.25L0.75 9.071L11.541 0.6605ZM10.5 18.5H13.5V12.5H10.5V18.5ZM9 18.5V12.5C9.0004 12.1023 9.15856 11.721 9.43978 11.4398C9.721 11.1586 10.1023 11.0004 10.5 11H13.5C13.8977 11.0004 14.279 11.1586 14.5602 11.4398C14.8414 11.721 14.9996 12.1023 15 12.5V18.5H19.5V8.0465L12 2.204L4.5 8.054V18.5H9Z" fill="#8E8E8E"/>
</svg>
