<svg width="24" height="24" viewBox="0 0 24 24" fill="none" xmlns="http://www.w3.org/2000/svg">
<path d="M2.46975 14.4697L4.5 12.4395V9.75C4.50233 7.89138 5.19373 6.09964 6.44053 4.72124C7.68732 3.34284 9.40093 2.4757 11.25 2.2875V0.75H12.75V2.2875C14.5991 2.4757 16.3127 3.34284 17.5595 4.72124C18.8063 6.09964 19.4977 7.89138 19.5 9.75V12.4395L21.5303 14.4697C21.6709 14.6104 21.75 14.8011 21.75 15V17.25C21.75 17.4489 21.671 17.6397 21.5303 17.7803C21.3897 17.921 21.1989 18 21 18H15.75V18.5828C15.7663 19.5342 15.4309 20.4583 14.8082 21.1778C14.1854 21.8973 13.319 22.3617 12.375 22.482C11.8536 22.5337 11.3272 22.4757 10.8296 22.3117C10.3319 22.1478 9.87414 21.8815 9.48561 21.53C9.09708 21.1785 8.78642 20.7495 8.57362 20.2707C8.36082 19.792 8.25058 19.2739 8.25 18.75V18H3C2.80109 18 2.61032 17.921 2.46967 17.7803C2.32902 17.6397 2.25 17.4489 2.25 17.25V15C2.25004 14.8011 2.32909 14.6104 2.46975 14.4697ZM9.75 18.75C9.75 19.3467 9.98705 19.919 10.409 20.341C10.831 20.7629 11.4033 21 12 21C12.5967 21 13.169 20.7629 13.591 20.341C14.0129 19.919 14.25 19.3467 14.25 18.75V18H9.75V18.75ZM3.75 16.5H20.25V15.3105L18.2198 13.2803C18.0791 13.1396 18 12.9489 18 12.75V9.75C18 8.1587 17.3679 6.63258 16.2426 5.50736C15.1174 4.38214 13.5913 3.75 12 3.75C10.4087 3.75 8.88258 4.38214 7.75736 5.50736C6.63214 6.63258 6 8.1587 6 9.75V12.75C5.99996 12.9489 5.92091 13.1396 5.78025 13.2803L3.75 15.3105V16.5Z" fill="#121212"/>
<circle cx="17.5" cy="4.5" r="3.5" fill="#E80000"/>
</svg>
