<svg width="20" height="20" viewBox="0 0 20 20" fill="none" xmlns="http://www.w3.org/2000/svg">
<path d="M5.675 0.1825C5.79213 0.0656638 5.95081 3.51487e-05 6.11625 0L13.8838 0C14.0492 3.51487e-05 14.2079 0.0656638 14.325 0.1825L19.8175 5.675C19.9343 5.79213 20 5.95081 20 6.11625V13.8838C20 14.0492 19.9343 14.2079 19.8175 14.325L14.325 19.8175C14.2079 19.9343 14.0492 20 13.8838 20H6.11625C5.95081 20 5.79213 19.9343 5.675 19.8175L0.1825 14.325C0.0656638 14.2079 3.51487e-05 14.0492 0 13.8838L0 6.11625C3.51487e-05 5.95081 0.0656638 5.79213 0.1825 5.675L5.675 0.1825ZM6.375 1.25L1.25 6.375V13.625L6.375 18.75H13.625L18.75 13.625V6.375L13.625 1.25H6.375Z" fill="#242424"/>
<path d="M6.56887 7.2325C6.56716 7.27287 6.57372 7.31316 6.58816 7.3509C6.60259 7.38863 6.6246 7.42302 6.65281 7.45194C6.68103 7.48085 6.71486 7.5037 6.75223 7.51906C6.7896 7.53442 6.82972 7.54197 6.87012 7.54125H7.90137C8.07387 7.54125 8.21137 7.4 8.23387 7.22875C8.34637 6.40875 8.90887 5.81125 9.91137 5.81125C10.7689 5.81125 11.5539 6.24 11.5539 7.27125C11.5539 8.065 11.0864 8.43 10.3476 8.985C9.50637 9.59625 8.84012 10.31 8.88762 11.4688L8.89137 11.74C8.89268 11.822 8.92618 11.9002 8.98465 11.9577C9.04311 12.0153 9.12185 12.0475 9.20387 12.0475H10.2176C10.3005 12.0475 10.38 12.0146 10.4386 11.956C10.4972 11.8974 10.5301 11.8179 10.5301 11.735V11.6038C10.5301 10.7063 10.8714 10.445 11.7926 9.74625C12.5539 9.1675 13.3476 8.525 13.3476 7.17625C13.3476 5.2875 11.7526 4.375 10.0064 4.375C8.42262 4.375 6.68762 5.1125 6.56887 7.2325ZM8.51512 14.4362C8.51512 15.1025 9.04637 15.595 9.77762 15.595C10.5389 15.595 11.0626 15.1025 11.0626 14.4362C11.0626 13.7463 10.5376 13.2613 9.77637 13.2613C9.04637 13.2613 8.51512 13.7463 8.51512 14.4362Z" fill="#242424"/>
</svg>
