<svg width="20" height="20" viewBox="0 0 20 20" fill="none" xmlns="http://www.w3.org/2000/svg">
<path d="M16.6667 6.66668L10.0001 10.8333L3.33341 6.66668V5.00001L10.0001 9.16668L16.6667 5.00001V6.66668ZM16.6667 3.33334H3.33341C2.40841 3.33334 1.66675 4.07501 1.66675 5.00001V15C1.66675 15.442 1.84234 15.866 2.1549 16.1785C2.46746 16.4911 2.89139 16.6667 3.33341 16.6667H16.6667C17.1088 16.6667 17.5327 16.4911 17.8453 16.1785C18.1578 15.866 18.3334 15.442 18.3334 15V5.00001C18.3334 4.55798 18.1578 4.13406 17.8453 3.8215C17.5327 3.50894 17.1088 3.33334 16.6667 3.33334Z" fill="#AAAAAA"/>
</svg>
