<svg width="24" height="24" viewBox="0 0 24 24" fill="none" xmlns="http://www.w3.org/2000/svg">
<path d="M21.4126 17.7656C21.9924 16.7091 22.3022 15.5257 22.3143 14.3206C22.3264 13.1155 22.0404 11.9261 21.4819 10.8582C20.9233 9.79024 20.1095 8.87692 19.1128 8.19946C18.1161 7.52199 16.9673 7.10137 15.7688 6.97502C15.3884 6.05867 14.8255 5.22931 14.1144 4.53744C13.4032 3.84557 12.5588 3.30565 11.6323 2.95055C10.7059 2.59544 9.71683 2.43259 8.72544 2.4719C7.73405 2.5112 6.76103 2.75185 5.8656 3.17918C4.97017 3.60651 4.17108 4.2116 3.51695 4.9576C2.86282 5.7036 2.36735 6.57492 2.06069 7.51851C1.75403 8.4621 1.64259 9.45822 1.73318 10.4463C1.82376 11.4343 2.11445 12.3935 2.58757 13.2656L1.98757 15.375C1.93349 15.5674 1.93162 15.7707 1.98215 15.964C2.03268 16.1573 2.13379 16.3337 2.27509 16.475C2.41638 16.6163 2.59276 16.7174 2.78609 16.7679C2.97941 16.8185 3.18271 16.8166 3.37507 16.7625L5.48445 16.1625C6.33317 16.6308 7.26723 16.9241 8.23132 17.025C8.62186 17.9779 9.20928 18.8376 9.95511 19.5478C10.7009 20.2579 11.5884 20.8025 12.5593 21.1459C13.5302 21.4893 14.5626 21.6238 15.5891 21.5405C16.6156 21.4572 17.6129 21.158 18.5157 20.6625L20.6251 21.2625C20.8177 21.3199 21.0223 21.3241 21.2172 21.2747C21.4121 21.2254 21.59 21.1243 21.7322 20.9821C21.8743 20.84 21.9754 20.662 22.0248 20.4672C22.0741 20.2723 22.0699 20.0677 22.0126 19.875L21.4126 17.7656ZM5.55945 14.9906C5.50504 14.9901 5.451 14.9996 5.40007 15.0188L3.0657 15.6844L3.73132 13.35C3.75472 13.2769 3.76181 13.1996 3.75209 13.1235C3.74237 13.0473 3.71608 12.9743 3.67507 12.9094C2.90792 11.6147 2.63968 10.0846 2.92072 8.60615C3.20176 7.12774 4.01276 5.80273 5.20146 4.87987C6.39016 3.95701 7.87483 3.49974 9.37677 3.59391C10.8787 3.68809 12.2946 4.32722 13.3588 5.39134C14.4229 6.45545 15.062 7.87138 15.1562 9.37332C15.2503 10.8753 14.7931 12.3599 13.8702 13.5486C12.9474 14.7373 11.6223 15.5483 10.1439 15.8294C8.66552 16.1104 7.13536 15.8422 5.8407 15.075C5.7571 15.0202 5.65939 14.9909 5.55945 14.9906ZM20.2688 17.85L20.9344 20.1844L18.6001 19.5188C18.527 19.4954 18.4496 19.4883 18.3735 19.498C18.2974 19.5077 18.2243 19.534 18.1594 19.575C17.4299 20.0064 16.6196 20.2836 15.7787 20.3895C14.9378 20.4953 14.0841 20.4275 13.2704 20.1902C12.4567 19.953 11.7004 19.5513 11.0481 19.0101C10.3958 18.4689 9.86153 17.7997 9.4782 17.0438C11.3295 16.9202 13.0649 16.0984 14.3336 14.7445C15.6022 13.3906 16.3096 11.6055 16.3126 9.75002C16.3105 9.21701 16.2507 8.6858 16.1344 8.16564C17.1131 8.34946 18.033 8.7664 18.8164 9.38117C19.5997 9.99594 20.2233 10.7904 20.6345 11.6973C21.0456 12.6043 21.2322 13.5969 21.1783 14.5912C21.1245 15.5855 20.8318 16.5522 20.3251 17.4094C20.2841 17.4743 20.2578 17.5473 20.248 17.6235C20.2383 17.6996 20.2454 17.7769 20.2688 17.85Z" fill="#242424"/>
</svg>
